<svg xmlns="http://www.w3.org/2000/svg" width="1600" height="900" viewBox="0 0 1600 900"><style>.t{font-family:-apple-system,BlinkMacSystemFont,'Segoe UI','Microsoft YaHei',sans-serif;fill:#1b2433}.m{fill:#6f7a8a}.b{font-weight:700}.s{font-size:13px}.n{font-size:16px}.h{font-size:31px}.h2{font-size:20px}.card{fill:#fff;stroke:#e3e8f0}.blue{fill:#256fff}.bt{fill:#256fff}.soft{fill:#eaf2ff}.green{fill:#22a06b}.amber{fill:#d98622}.red{fill:#e15252}</style><rect width="1600" height="900" fill="#f4f7fb"/><rect width="235" height="900" fill="#fbfcfe"/><path d="M235 0v900" stroke="#e3e8f0"/><rect x="22" y="22" width="44" height="44" rx="11" class="blue"/><path d="M35 55l9-24 9 24z" fill="#fff"/><text x="82" y="47" class="t b" font-size="24">牛马片场</text><text x="82" y="70" class="t m s">本地 AI 高光生产后台</text><g class="t n"><text x="32" y="131">台　工作台</text><text x="32" y="188">建　新建任务</text><text x="32" y="245">列　任务列表</text><text x="32" y="302">审　片段审核</text><text x="32" y="359">字　字幕推送</text><rect x="18" y="386" width="200" height="48" rx="10" class="soft"/><text x="32" y="416" class="bt b">发　发送中心</text><text x="32" y="473">设　系统状态</text></g><rect x="18" y="758" width="200" height="118" rx="12" class="card"/><text x="32" y="798" class="t b n">v2.0 本地高光生产版</text><text x="32" y="830" class="t m s">素材、转写、AI 选片、审核、</text><text x="32" y="854" class="t m s">切片、排期与多平台发布。</text><text x="272" y="40" class="t m s b">Local Studio</text><text x="272" y="67" class="t b h2">牛马片场</text><rect x="520" y="24" width="500" height="44" rx="11" fill="#fafcff" stroke="#e3e8f0"/><text x="574" y="51" class="t m n">任务名称、平台、状态</text><rect x="1440" y="24" width="132" height="44" rx="10" class="blue"/><text x="1475" y="52" fill="#fff" font-family="Segoe UI,Microsoft YaHei" font-size="16" font-weight="700">新建任务</text><path d="M256 86h1320" stroke="#e3e8f0"/><text x="272" y="128" class="t m s b">PUBLISH CENTER</text><text x="272" y="178" class="t b h">发送中心</text><text x="272" y="205" class="t m n">先准备内容，再按北京时间排期，最后在执行记录中确认平台结果。</text><rect x="1240" y="128" width="130" height="38" rx="9" class="card"/><text x="1276" y="152" class="t b n">账号管理</text><rect x="1382" y="128" width="190" height="38" rx="9" class="card"/><text x="1422" y="152" class="t b n">补充缺失任务</text><rect x="272" y="224" width="1300" height="62" rx="12" fill="#f7fbff" stroke="#ddebff"/><circle cx="302" cy="255" r="8" class="green"/><text x="324" y="261" class="t b n">统一发布调度器</text><rect x="508" y="239" width="80" height="30" rx="15" fill="#e8f8f0"/><text x="523" y="259" class="green b s">调度正常</text><text x="650" y="261" class="t m n">扫描：5 秒</text><text x="770" y="261" class="t m n">已排期：8</text><text x="890" y="261" class="t m n">发送中：1</text><rect x="1040" y="239" width="178" height="30" rx="15" fill="#e8f8f0"/><text x="1056" y="259" class="green b s">Windows Worker 正常</text><text x="1320" y="261" class="t m s">页面及排期使用北京时间</text><rect x="272" y="310" width="160" height="42" rx="10" class="blue"/><text x="322" y="337" fill="#fff" font-family="Segoe UI,Microsoft YaHei" font-size="16" font-weight="700">内容准备</text><rect x="446" y="310" width="160" height="42" rx="10" class="card"/><text x="496" y="337" class="t b n">排期计划</text><rect x="620" y="310" width="160" height="42" rx="10" class="card"/><text x="670" y="337" class="t b n">执行记录</text>
<g><rect x="272" y="374" width="1300" height="148" rx="14" class="card"/><rect x="292" y="394" width="128" height="100" rx="12" fill="#16202d"/><circle cx="356" cy="444" r="19" fill="#fff"/><path d="M351 433v22l18-11z" class="blue"/><text x="448" y="415" class="t m s b">裁剪片段</text><text x="448" y="450" class="t b h2">小S突然反问，现场全体笑翻</text><rect x="448" y="461" width="52" height="28" rx="14" class="soft"/><text x="462" y="480" class="bt b s">抖音</text><rect x="526" y="461" width="72" height="28" rx="14" fill="#e8f8f0"/><text x="538" y="480" class="green b s">内容完整</text><text x="760" y="433" class="t m s b">发布账号</text><text x="760" y="468" class="t b n">已选择账号</text><text x="990" y="433" class="t m s b">可见范围</text><text x="990" y="468" class="t b n">公开</text><rect x="1190" y="404" width="126" height="42" rx="9" class="card"/><text x="1212" y="431" class="t b n">AI 补齐文案</text><rect x="1330" y="404" width="126" height="42" rx="9" class="card"/><text x="1360" y="431" class="t b n">更换封面</text><rect x="1190" y="456" width="266" height="43" rx="9" class="blue"/><text x="1268" y="483" fill="#fff" font-family="Segoe UI,Microsoft YaHei" font-size="16" font-weight="700">加入发布计划</text><text x="1466" y="483" class="red b s">移出</text>
<rect x="272" y="538" width="1300" height="148" rx="14" class="card"/><rect x="292" y="558" width="128" height="100" rx="12" fill="#16202d"/><circle cx="356" cy="608" r="19" fill="#fff"/><path d="M351 597v22l18-11z" class="blue"/><text x="448" y="579" class="t m s b">裁剪片段</text><text x="448" y="614" class="t b h2">蔡康永一句话把话题拉回来</text><rect x="448" y="625" width="52" height="28" rx="14" class="soft"/><text x="462" y="644" class="bt b s">B站</text><rect x="526" y="625" width="88" height="28" rx="14" fill="#fff4df"/><text x="538" y="644" class="amber b s">缺少：简介</text><text x="760" y="597" class="t m s b">发布账号</text><text x="760" y="632" class="t b n">等待选择账号</text><text x="990" y="597" class="t m s b">可见范围</text><text x="990" y="632" class="t b n">公开</text><rect x="1190" y="568" width="126" height="42" rx="9" class="card"/><text x="1212" y="595" class="t b n">AI 补齐文案</text><rect x="1330" y="568" width="126" height="42" rx="9" class="card"/><text x="1360" y="595" class="t b n">更换封面</text><rect x="1190" y="620" width="266" height="43" rx="9" class="blue"/><text x="1268" y="647" fill="#fff" font-family="Segoe UI,Microsoft YaHei" font-size="16" font-weight="700">加入发布计划</text><text x="1466" y="647" class="red b s">移出</text>
<rect x="272" y="702" width="1300" height="148" rx="14" class="card"/><rect x="292" y="722" width="128" height="100" rx="12" fill="#16202d"/><circle cx="356" cy="772" r="19" fill="#fff"/><path d="M351 761v22l18-11z" class="blue"/><text x="448" y="743" class="t m s b">裁剪片段</text><text x="448" y="778" class="t b h2">来宾自曝尴尬经历</text><rect x="448" y="789" width="52" height="28" rx="14" class="soft"/><text x="462" y="808" class="bt b s">抖音</text><rect x="526" y="789" width="72" height="28" rx="14" fill="#e8f8f0"/><text x="538" y="808" class="green b s">内容完整</text><text x="760" y="761" class="t m s b">发布账号</text><text x="760" y="796" class="t b n">已选择账号</text><text x="990" y="761" class="t m s b">可见范围</text><text x="990" y="796" class="t b n">仅自己可见</text><rect x="1190" y="732" width="126" height="42" rx="9" class="card"/><text x="1212" y="759" class="t b n">AI 补齐文案</text><rect x="1330" y="732" width="126" height="42" rx="9" class="card"/><text x="1360" y="759" class="t b n">更换封面</text><rect x="1190" y="784" width="266" height="43" rx="9" class="blue"/><text x="1268" y="811" fill="#fff" font-family="Segoe UI,Microsoft YaHei" font-size="16" font-weight="700">加入发布计划</text><text x="1466" y="811" class="red b s">移出</text></g><rect x="272" y="808" width="1300" height="59" rx="12" fill="#16202d"/><text x="296" y="843" fill="#fff" font-family="Segoe UI,Microsoft YaHei" font-size="16" font-weight="700">已选择 2 条内容</text><text x="540" y="843" fill="#bfd0e5" font-family="Segoe UI,Microsoft YaHei" font-size="14">批量平台：抖音</text><rect x="1356" y="818" width="192" height="39" rx="9" class="blue"/><text x="1419" y="844" fill="#fff" font-family="Segoe UI,Microsoft YaHei" font-size="16" font-weight="700">设置排期</text></svg>